<svg version="1.1" id="Layer_1" xmlns="http://www.w3.org/2000/svg" xmlns:xlink="http://www.w3.org/1999/xlink" x="0px" y="0px"
	 width="100%" viewBox="0 0 500 500" enable-background="new 0 0 500 500" xml:space="preserve">
<path fill="#000000" opacity="1.000000" stroke="none" 
	d="
M501.000000,420.000000 
	C501.000000,446.982178 501.000000,473.964325 501.000000,500.944275 
	C334.333313,500.942017 167.666656,500.942017 1.000000,500.942017 
	C1.000000,473.901764 1.000000,446.919556 1.468654,419.474335 
	C16.175644,419.007751 30.414141,419.033936 44.652073,418.956543 
	C46.145676,418.948456 47.635956,418.329376 49.055260,417.987579 
	C48.982746,417.981384 48.969391,418.126343 49.370003,417.927307 
	C49.844608,416.073730 49.982258,414.419250 49.983231,412.764709 
	C50.004391,376.844330 50.010319,340.923920 50.486542,304.993256 
	C75.946060,304.996521 100.938248,305.025452 125.930305,304.979828 
	C127.231209,304.977448 128.530945,304.339661 130.283890,304.000061 
	C136.478531,303.530914 142.249435,303.283783 147.957397,302.548248 
	C170.110840,299.693451 188.735626,289.124390 204.934509,274.524017 
	C217.782608,262.943787 226.373276,248.099625 232.578873,231.924866 
	C236.790100,220.948364 238.286896,209.592880 238.026978,197.910675 
	C237.876434,191.144012 238.673523,184.274673 237.778870,177.621704 
	C235.269699,158.962463 227.889008,142.180038 216.586517,127.113312 
	C205.358017,112.145218 190.848206,101.036217 174.182434,93.113731 
	C159.021271,85.906509 142.487167,83.184586 125.751213,83.089111 
	C84.168655,82.851891 42.583881,83.004158 1.000000,83.000000 
	C1.000000,55.682655 1.000000,28.365311 1.000000,1.023983 
	C167.553177,1.023983 334.106354,1.023983 501.000000,1.023983 
	C501.000000,56.020428 501.000000,111.041557 500.623718,166.716705 
	C499.817230,166.550446 499.200195,165.776337 498.984283,164.903061 
	C494.484650,146.705856 486.208954,130.471664 473.247437,116.888840 
	C465.016632,108.263435 455.839996,100.512787 444.898529,95.605614 
	C436.272095,91.736732 427.083710,89.120918 417.983521,85.671959 
	C417.213531,85.329269 416.604950,85.263168 415.602539,85.158218 
	C414.154755,85.077103 413.100830,85.034828 411.915649,84.728180 
	C410.524597,84.374794 409.264740,84.285782 407.685852,84.140701 
	C406.938538,84.030479 406.510254,83.976326 405.839294,83.593109 
	C403.403961,83.249138 401.211243,83.234238 398.756012,83.152527 
	C398.317139,83.046867 398.140747,83.008034 397.761047,82.587379 
	C397.064911,82.130615 396.572113,81.989609 396.079407,81.990105 
	C350.418182,82.036339 304.756989,82.093384 258.648254,82.209167 
	C258.137970,97.495316 258.058868,112.722023 258.069183,127.948669 
	C258.069611,128.589890 258.901764,129.230545 259.789734,129.930237 
	C306.449036,130.232254 352.665009,130.475510 399.294128,130.802139 
	C405.554474,132.437592 411.633575,133.415009 417.200562,135.661560 
	C428.744934,140.320282 437.305756,148.540985 443.850037,159.197891 
	C453.136475,174.320145 455.839569,190.068024 449.651611,206.908630 
	C445.601074,217.932190 439.283020,227.229095 429.588898,234.378448 
	C422.398102,239.681656 414.369324,242.509903 405.744171,245.171143 
	C404.263702,245.562744 403.139099,245.902100 401.689636,246.215530 
	C400.933990,246.236374 400.503204,246.283157 399.603760,246.219528 
	C370.126923,246.131958 341.118683,246.154785 311.842957,246.166504 
	C311.371460,246.432037 311.167511,246.708679 310.644653,247.021484 
	C309.899384,247.031998 309.472961,247.006348 308.966400,246.756775 
	C308.574371,246.681671 308.262512,246.830460 307.715088,247.034180 
	C307.479492,247.089096 307.011444,247.211426 306.674652,247.135391 
	C305.881226,247.095825 305.424622,247.132278 304.504333,247.112610 
	C289.684692,247.086502 275.328674,247.116531 260.710754,247.076233 
	C260.097961,247.059845 259.747131,247.113785 258.920410,247.121002 
	C258.298767,247.537064 258.025116,247.999985 258.025574,248.462646 
	C258.057770,280.973541 258.111908,313.484406 258.084259,346.458038 
	C258.058807,368.555908 258.113281,390.190979 258.111694,412.244812 
	C258.402283,414.794739 258.748962,416.925903 259.257507,419.459351 
	C274.151917,419.905365 288.884552,419.965546 303.617035,419.948944 
	C304.427124,419.948029 305.236481,419.308929 306.359833,418.685852 
	C306.788910,416.417816 307.003448,414.430878 307.004883,412.443848 
	C307.025940,383.287292 307.038605,354.130676 307.006989,324.974152 
	C306.996155,314.983307 306.857605,304.992584 307.050171,294.651123 
	C307.972015,294.177032 308.620911,293.947083 309.270264,293.945709 
	C326.551514,293.909363 343.833527,293.822388 361.112732,294.003784 
	C362.695526,294.020386 364.628876,295.466217 365.753143,296.795135 
	C367.828766,299.248535 369.301941,302.200287 371.245453,304.779114 
	C375.839691,310.875214 380.562653,316.874298 385.158691,323.270752 
	C390.708527,332.116730 396.316254,340.615936 401.999054,349.064667 
	C402.349365,349.585449 403.291931,349.707916 403.967041,350.022339 
	C403.975189,350.028961 403.995239,350.035187 404.050018,350.385071 
	C407.395874,355.480591 410.686920,360.226196 413.971863,365.001251 
	C413.965698,365.030701 414.025604,365.036407 414.067535,365.284180 
	C414.391144,365.685089 414.672852,365.838257 414.952515,366.016663 
	C414.950500,366.041901 415.001068,366.044189 414.999878,366.402893 
	C417.986908,370.844513 420.975098,374.927460 423.972717,379.013123 
	C423.982147,379.015808 423.980713,379.035431 423.980469,379.362610 
	C424.660767,380.440887 425.341248,381.191956 426.010010,381.969635 
	C425.998291,381.996216 426.055847,381.988342 426.046692,382.346680 
	C432.356537,391.471466 438.675568,400.237885 444.997314,409.002167 
	C445.000000,409.000000 444.994873,409.005005 445.013489,409.362915 
	C447.203430,412.797974 449.374725,415.875092 451.849976,419.302551 
	C468.435944,419.768646 484.717987,419.884338 501.000000,420.000000 
z"/>
<path fill="#C62B2F" opacity="1.000000" stroke="none" 
	d="
M418.144897,85.948547 
	C427.083710,89.120918 436.272095,91.736732 444.898529,95.605614 
	C455.839996,100.512787 465.016632,108.263435 473.247437,116.888840 
	C486.208954,130.471664 494.484650,146.705856 498.984283,164.903061 
	C499.200195,165.776337 499.817230,166.550446 500.623718,167.185364 
	C501.000000,182.020889 501.000000,197.041794 500.623962,212.354034 
	C499.853027,213.139877 499.218689,213.582199 499.097839,214.136444 
	C494.996185,232.947922 486.200195,249.356812 472.853973,263.078430 
	C462.654144,273.565155 450.338226,281.277802 436.776398,286.825287 
	C432.228790,288.685486 427.462860,290.011902 422.432220,291.705017 
	C423.172852,293.058563 423.483246,293.787079 423.930176,294.419006 
	C434.564697,309.456207 445.274536,324.440521 455.845398,339.522247 
	C469.844971,359.495819 483.721161,379.555878 497.723206,399.527710 
	C498.470520,400.593658 499.892242,401.186768 501.000000,402.000000 
	C501.000000,407.022095 501.000000,412.044189 500.531342,417.536743 
	C486.069122,418.000977 472.074524,417.899658 458.082703,418.051910 
	C454.341766,418.092621 451.803314,416.864319 449.754730,413.739624 
	C448.554169,411.908325 446.606476,410.566833 444.994873,409.005005 
	C444.994873,409.005005 445.000000,409.000000 444.991943,408.630920 
	C441.298309,402.323334 437.817047,396.243500 433.845795,390.502594 
	C431.677582,387.368164 428.679596,384.807678 426.055847,381.988342 
	C426.055847,381.988342 425.998291,381.996216 426.002411,381.635590 
	C425.331238,380.528473 424.655975,379.781952 423.980713,379.035431 
	C423.980713,379.035431 423.982147,379.015808 423.975494,378.646576 
	C421.479675,373.833038 420.671875,368.156128 415.001068,366.044189 
	C415.001068,366.044189 414.950500,366.041901 414.848206,365.813019 
	C414.560730,365.329346 414.320618,365.146759 414.025604,365.036407 
	C414.025604,365.036407 413.965698,365.030701 413.975800,364.636414 
	C410.655670,359.506470 407.325470,354.770813 403.995239,350.035187 
	C403.995239,350.035187 403.975189,350.028961 403.970306,349.658142 
	C400.446777,343.725342 397.097809,338.045563 393.348358,332.643829 
	C390.949402,329.187714 387.958862,326.142212 385.233551,322.912628 
	C380.562653,316.874298 375.839691,310.875214 371.245453,304.779114 
	C369.301941,302.200287 367.828766,299.248535 365.753143,296.795135 
	C364.628876,295.466217 362.695526,294.020386 361.112732,294.003784 
	C343.833527,293.822388 326.551514,293.909363 309.270264,293.945709 
	C308.620911,293.947083 307.972015,294.177032 306.864563,295.017578 
	C306.274750,297.719910 306.030090,299.704956 306.028656,301.690216 
	C306.002045,338.350098 305.942902,375.010193 306.076477,411.669586 
	C306.093781,416.413513 304.550293,418.181244 299.732391,418.073975 
	C288.406708,417.821777 277.065857,417.774872 265.743225,418.085693 
	C260.899994,418.218628 259.908020,416.280457 259.918121,411.913818 
	C260.038788,359.757050 259.994690,307.599915 260.058716,255.442993 
	C260.061737,252.978775 260.672882,250.515320 261.469116,248.031860 
	C276.284454,247.997482 290.631500,247.982712 305.253235,247.935364 
	C306.022461,247.672333 306.516937,247.441864 307.011444,247.211426 
	C307.011444,247.211426 307.479492,247.089096 307.989105,247.043610 
	C308.681335,246.992294 308.863953,246.986496 309.046570,246.980698 
	C309.472961,247.006348 309.899384,247.031998 310.926941,247.024323 
	C311.715668,246.977020 311.903229,246.963074 312.058807,246.972778 
	C312.026825,246.996445 311.979736,246.932281 312.319824,247.173553 
	C313.792175,247.607056 314.924194,247.965652 316.056671,247.967163 
	C342.278290,248.002060 368.500000,248.012512 394.721558,247.962875 
	C396.157654,247.960159 397.592743,247.397171 399.195557,246.959320 
	C399.594482,246.652145 399.831024,246.487564 400.072388,246.329941 
	C400.503204,246.283157 400.933990,246.236374 401.950195,246.375534 
	C403.723724,246.080597 404.911896,245.599731 406.100037,245.118866 
	C414.369324,242.509903 422.398102,239.681656 429.588898,234.378448 
	C439.283020,227.229095 445.601074,217.932190 449.651611,206.908630 
	C455.839569,190.068024 453.136475,174.320145 443.850037,159.197891 
	C437.305756,148.540985 428.744934,140.320282 417.200562,135.661560 
	C411.633575,133.415009 405.554474,132.437592 399.120422,130.483200 
	C396.135742,129.714005 393.738434,129.031799 391.339905,129.027283 
	C352.250092,128.953629 313.160156,128.975739 274.070221,128.945221 
	C269.416748,128.941589 264.763397,128.756317 260.081970,128.220551 
	C260.040741,115.475685 260.014740,103.165489 260.019257,90.855309 
	C260.021759,84.028854 260.044739,84.010811 266.970123,84.009163 
	C308.226562,83.999367 349.483032,84.011879 390.739380,83.956299 
	C392.843628,83.953468 394.947113,83.391312 397.278503,83.053329 
	C397.506073,83.017090 397.964386,82.969193 397.964386,82.969193 
	C398.140747,83.008034 398.317139,83.046867 399.052551,83.328171 
	C401.768372,83.687820 403.925140,83.805000 406.081940,83.922173 
	C406.510254,83.976326 406.938538,84.030479 407.984619,84.321411 
	C409.750519,84.702980 410.898712,84.847763 412.046875,84.992546 
	C413.100830,85.034828 414.154755,85.077103 415.841614,85.322571 
	C417.031311,85.666687 417.588104,85.807617 418.144897,85.948547 
z"/>
<path fill="#1E274D" opacity="1.000000" stroke="none" 
	d="
M1.000000,83.468658 
	C42.583881,83.004158 84.168655,82.851891 125.751213,83.089111 
	C142.487167,83.184586 159.021271,85.906509 174.182434,93.113731 
	C190.848206,101.036217 205.358017,112.145218 216.586517,127.113312 
	C227.889008,142.180038 235.269699,158.962463 237.778870,177.621704 
	C238.673523,184.274673 237.876434,191.144012 238.026978,197.910675 
	C238.286896,209.592880 236.790100,220.948364 232.578873,231.924866 
	C226.373276,248.099625 217.782608,262.943787 204.934509,274.524017 
	C188.735626,289.124390 170.110840,299.693451 147.957397,302.548248 
	C142.249435,303.283783 136.478531,303.530914 130.064301,304.007812 
	C129.392044,304.013184 128.979935,303.858856 128.624359,303.652466 
	C127.454865,303.299377 126.641083,303.025360 125.827003,303.024506 
	C105.841858,303.003082 85.856621,302.994995 65.871590,303.049713 
	C64.593536,303.053223 63.316917,303.583160 61.620743,303.945221 
	C59.787785,303.967194 58.373711,303.912201 56.710182,303.678833 
	C55.320415,303.620636 54.180107,303.740753 52.698433,303.933838 
	C51.895992,303.963715 51.434914,303.920593 50.858643,303.807190 
	C50.478462,303.640839 50.237556,303.699677 49.808681,304.055725 
	C49.466599,304.491180 49.336582,304.784302 49.123955,305.396912 
	C48.978935,306.150391 48.916523,306.584381 48.674728,307.297668 
	C48.612362,309.043671 48.729378,310.510315 48.915245,312.425171 
	C48.931961,315.590088 48.879829,318.306793 48.637486,321.385925 
	C48.578636,330.825989 48.710003,339.903595 48.915924,349.422699 
	C48.939899,352.249023 48.889320,354.633911 48.649666,357.367279 
	C48.587540,361.138123 48.714481,364.560455 48.916840,368.317047 
	C48.947018,369.102905 48.901787,369.554474 48.677605,370.287781 
	C48.617603,372.044006 48.736557,373.518494 48.929382,375.427368 
	C48.949993,377.913818 48.896736,379.965942 48.654045,382.360535 
	C48.592438,385.796051 48.720264,388.889069 48.922119,392.318665 
	C48.946789,393.109467 48.897434,393.563629 48.670021,394.298218 
	C48.610619,396.046936 48.729282,397.515320 48.921524,399.318115 
	C48.947575,400.103851 48.900047,400.555176 48.670021,401.306641 
	C48.606171,403.401733 48.724823,405.196625 48.919319,407.447266 
	C48.986572,411.310791 48.977982,414.718567 48.969391,418.126343 
	C48.969391,418.126343 48.982746,417.981384 48.696033,417.953156 
	C47.931007,417.897003 47.452698,417.869049 46.614441,417.645508 
	C33.799568,417.297943 21.344877,417.102203 8.889485,417.033600 
	C6.610319,417.021057 4.328304,417.525909 1.784486,417.837830 
	C1.347579,417.922485 1.173790,417.961243 1.000000,418.000000 
	C1.000000,364.979095 1.000000,311.958221 1.467912,258.439880 
	C44.843075,257.951080 87.750336,257.969818 130.657547,257.931885 
	C132.403244,257.930359 134.148468,257.394745 136.309662,257.054504 
	C144.122833,254.490601 152.149429,253.063629 158.771484,249.218063 
	C168.927933,243.319992 177.238083,234.952881 182.581070,224.106888 
	C186.380859,216.393478 189.322876,208.417740 189.980576,199.781494 
	C191.190765,183.890549 186.636230,169.573486 177.577087,156.657379 
	C172.516266,149.441910 166.327744,143.586685 158.533218,138.963791 
	C150.783829,134.367645 142.624237,132.288727 133.844101,130.589661 
	C131.623230,129.833572 129.586899,129.055099 127.549194,129.051453 
	C87.585892,128.980072 47.622406,128.983688 7.659076,129.045670 
	C5.747181,129.048645 3.836338,129.729813 1.694311,130.065948 
	C1.463616,130.036743 1.000000,130.000000 1.000000,130.000000 
	C1.000000,114.645775 1.000000,99.291542 1.000000,83.468658 
z"/>
<path fill="#000000" opacity="1.000000" stroke="none" 
	d="
M134.028000,130.928040 
	C142.624237,132.288727 150.783829,134.367645 158.533218,138.963791 
	C166.327744,143.586685 172.516266,149.441910 177.577087,156.657379 
	C186.636230,169.573486 191.190765,183.890549 189.980576,199.781494 
	C189.322876,208.417740 186.380859,216.393478 182.581070,224.106888 
	C177.238083,234.952881 168.927933,243.319992 158.771484,249.218063 
	C152.149429,253.063629 144.122833,254.490601 135.846695,257.030457 
	C90.311981,257.039917 45.655991,257.019958 1.000000,257.000000 
	C1.000000,214.979111 1.000000,172.958206 1.000000,130.468658 
	C1.000000,130.000000 1.463616,130.036743 1.726704,130.062622 
	C1.989792,130.088516 2.002248,130.022888 2.211133,130.403748 
	C35.898540,130.844421 69.377068,130.904236 103.313553,130.973175 
	C113.857018,130.964203 123.942505,130.946121 134.028000,130.928040 
z"/>
<path fill="#000000" opacity="1.000000" stroke="none" 
	d="
M501.000000,401.531342 
	C499.892242,401.186768 498.470520,400.593658 497.723206,399.527710 
	C483.721161,379.555878 469.844971,359.495819 455.845398,339.522247 
	C445.274536,324.440521 434.564697,309.456207 423.930176,294.419006 
	C423.483246,293.787079 423.172852,293.058563 422.432220,291.705017 
	C427.462860,290.011902 432.228790,288.685486 436.776398,286.825287 
	C450.338226,281.277802 462.654144,273.565155 472.853973,263.078430 
	C486.200195,249.356812 494.996185,232.947922 499.097839,214.136444 
	C499.218689,213.582199 499.853027,213.139877 500.623962,212.822693 
	C501.000000,275.687561 501.000000,338.375122 501.000000,401.531342 
z"/>
<path fill="#9498AE" opacity="1.000000" stroke="none" 
	d="
M1.000000,257.250000 
	C45.655991,257.019958 90.311981,257.039917 135.430939,257.083923 
	C134.148468,257.394745 132.403244,257.930359 130.657547,257.931885 
	C87.750336,257.969818 44.843075,257.951080 1.467912,257.971252 
	C1.000000,258.000000 1.000000,257.500000 1.000000,257.250000 
z"/>
<path fill="#A83135" opacity="1.000000" stroke="none" 
	d="
M445.013489,409.362915 
	C446.606476,410.566833 448.554169,411.908325 449.754730,413.739624 
	C451.803314,416.864319 454.341766,418.092621 458.082703,418.051910 
	C472.074524,417.899658 486.069122,418.000977 500.531342,418.003601 
	C501.000000,418.000000 501.000000,418.500000 500.531342,418.751282 
	C483.890472,418.985748 467.718262,418.968964 451.546051,418.952179 
	C449.374725,415.875092 447.203430,412.797974 445.013489,409.362915 
z"/>
<path fill="#C17A7C" opacity="1.000000" stroke="none" 
	d="
M451.849976,419.302551 
	C467.718262,418.968964 483.890472,418.985748 500.531342,419.001282 
	C501.000000,419.000000 501.000000,419.500000 501.000000,419.750000 
	C484.717987,419.884338 468.435944,419.768646 451.849976,419.302551 
z"/>
<path fill="#B7B7CF" opacity="1.000000" stroke="none" 
	d="
M1.000000,418.250000 
	C1.173790,417.961243 1.347579,417.922485 2.239923,417.940033 
	C17.630447,417.944580 32.302414,417.892822 46.974384,417.841095 
	C47.452698,417.869049 47.931007,417.897003 48.768547,417.959351 
	C47.635956,418.329376 46.145676,418.948456 44.652073,418.956543 
	C30.414141,419.033936 16.175644,419.007751 1.468654,419.005676 
	C1.000000,419.000000 1.000000,418.500000 1.000000,418.250000 
z"/>
<path fill="#A83135" opacity="1.000000" stroke="none" 
	d="
M261.000824,248.051498 
	C260.672882,250.515320 260.061737,252.978775 260.058716,255.442993 
	C259.994690,307.599915 260.038788,359.757050 259.918121,411.913818 
	C259.908020,416.280457 260.899994,418.218628 265.743225,418.085693 
	C277.065857,417.774872 288.406708,417.821777 299.732391,418.073975 
	C304.550293,418.181244 306.093781,416.413513 306.076477,411.669586 
	C305.942902,375.010193 306.002045,338.350098 306.028656,301.690216 
	C306.030090,299.704956 306.274750,297.719910 306.591797,295.368286 
	C306.857605,304.992584 306.996155,314.983307 307.006989,324.974152 
	C307.038605,354.130676 307.025940,383.287292 307.004883,412.443848 
	C307.003448,414.430878 306.788910,416.417816 305.888031,418.685883 
	C289.766937,418.997009 274.431274,419.027069 259.095642,419.057098 
	C258.748962,416.925903 258.402283,414.794739 258.390808,411.947357 
	C258.763367,389.482819 258.800690,367.734436 258.898926,345.521790 
	C258.976044,314.413208 258.985138,283.768890 259.025055,253.124603 
	C259.027649,251.138840 259.267059,249.153351 259.396301,247.167740 
	C259.747131,247.113785 260.097961,247.059845 260.716553,247.302521 
	C260.984283,247.599136 261.000824,248.051498 261.000824,248.051498 
z"/>
<path fill="#A54950" opacity="1.000000" stroke="none" 
	d="
M260.109985,128.655243 
	C264.763397,128.756317 269.416748,128.941589 274.070221,128.945221 
	C313.160156,128.975739 352.250092,128.953629 391.339905,129.027283 
	C393.738434,129.031799 396.135742,129.714005 398.707275,130.399841 
	C352.665009,130.475510 306.449036,130.232254 259.791199,129.676727 
	C259.336029,129.195435 259.322662,129.026398 259.510864,128.812347 
	C259.712433,128.767349 260.109985,128.655243 260.109985,128.655243 
z"/>
<path fill="#C17A7C" opacity="1.000000" stroke="none" 
	d="
M397.761047,82.587379 
	C397.964386,82.969193 397.506073,83.017090 396.804504,83.018143 
	C357.104462,83.004410 318.105957,82.981499 279.107452,82.982681 
	C272.445404,82.982880 265.783356,83.086029 259.107544,82.893829 
	C259.093750,82.646042 259.095764,82.149712 259.095764,82.149712 
	C304.756989,82.093384 350.418182,82.036339 396.079407,81.990105 
	C396.572113,81.989609 397.064911,82.130615 397.761047,82.587379 
z"/>
<path fill="#D2D6E5" opacity="1.000000" stroke="none" 
	d="
M48.848083,394.017822 
	C48.897434,393.563629 48.946789,393.109467 48.989029,391.870117 
	C48.935772,388.062653 48.889626,385.040344 48.843483,382.018036 
	C48.896736,379.965942 48.949993,377.913818 48.997818,375.015320 
	C48.947113,372.781311 48.901833,371.393707 48.856552,370.006073 
	C48.901787,369.554474 48.947018,369.102905 48.982574,367.864197 
	C48.928181,363.724304 48.883461,360.371521 48.838741,357.018768 
	C48.889320,354.633911 48.939899,352.249023 48.983818,348.959412 
	C48.927341,339.044281 48.877522,330.033905 48.827698,321.023529 
	C48.879829,318.306793 48.931961,315.590088 48.982155,312.015625 
	C48.938179,309.778046 48.896141,308.398193 48.854107,307.018372 
	C48.916523,306.584381 48.978935,306.150391 49.330406,305.414612 
	C49.619461,305.112854 50.019180,305.003540 50.019180,305.003540 
	C50.010319,340.923920 50.004391,376.844330 49.983231,412.764709 
	C49.982258,414.419250 49.844608,416.073730 49.370003,417.927307 
	C48.977982,414.718567 48.986572,411.310791 48.986336,407.023438 
	C48.935848,404.431427 48.894184,402.718964 48.852524,401.006500 
	C48.900047,400.555176 48.947575,400.103851 48.987808,398.907654 
	C48.936375,396.781158 48.892227,395.399475 48.848083,394.017822 
z"/>
<path fill="#FFCCCD" opacity="1.000000" stroke="none" 
	d="
M258.920410,247.121002 
	C259.267059,249.153351 259.027649,251.138840 259.025055,253.124603 
	C258.985138,283.768890 258.976044,314.413208 258.730438,345.524597 
	C258.501099,345.991638 258.164185,345.995270 258.164185,345.995270 
	C258.111908,313.484406 258.057770,280.973541 258.025574,248.462646 
	C258.025116,247.999985 258.298767,247.537064 258.920410,247.121002 
z"/>
<path fill="#CD9797" opacity="1.000000" stroke="none" 
	d="
M399.603760,246.219528 
	C399.831024,246.487564 399.594482,246.652145 398.724426,246.910492 
	C369.383942,246.975632 340.681824,246.953964 311.979736,246.932281 
	C311.979736,246.932281 312.026825,246.996445 312.070923,246.780212 
	C312.114990,246.563980 312.110443,246.177612 312.110443,246.177612 
	C341.118683,246.154785 370.126923,246.131958 399.603760,246.219528 
z"/>
<path fill="#A2A7BB" opacity="1.000000" stroke="none" 
	d="
M50.486542,304.993256 
	C50.019180,305.003540 49.619461,305.112854 49.413013,305.095154 
	C49.336582,304.784302 49.466599,304.491180 50.048599,304.089386 
	C50.500587,303.980743 50.973831,303.877502 50.973831,303.877502 
	C51.434914,303.920593 51.895992,303.963715 53.088459,303.986328 
	C54.866444,303.929626 55.913044,303.893402 56.959641,303.857178 
	C58.373711,303.912201 59.787785,303.967194 62.084671,303.995636 
	C84.971642,303.932312 106.975784,303.895569 128.979935,303.858826 
	C128.979935,303.858856 129.392044,304.013184 129.611633,304.005432 
	C128.530945,304.339661 127.231209,304.977448 125.930305,304.979828 
	C100.938248,305.025452 75.946060,304.996521 50.486542,304.993256 
z"/>
<path fill="#A83135" opacity="1.000000" stroke="none" 
	d="
M426.046661,382.346680 
	C428.679596,384.807678 431.677582,387.368164 433.845795,390.502594 
	C437.817047,396.243500 441.298309,402.323334 444.989258,408.633118 
	C438.675568,400.237885 432.356537,391.471466 426.046661,382.346680 
z"/>
<path fill="#FABFC4" opacity="1.000000" stroke="none" 
	d="
M258.084259,346.458038 
	C258.164185,345.995270 258.501099,345.991638 258.669556,345.988861 
	C258.800690,367.734436 258.763367,389.482819 258.446899,411.528625 
	C258.113281,390.190979 258.058807,368.555908 258.084259,346.458038 
z"/>
<path fill="#A83135" opacity="1.000000" stroke="none" 
	d="
M385.158691,323.270752 
	C387.958862,326.142212 390.949402,329.187714 393.348358,332.643829 
	C397.097809,338.045563 400.446777,343.725342 403.962158,349.651489 
	C403.291931,349.707916 402.349365,349.585449 401.999054,349.064667 
	C396.316254,340.615936 390.708527,332.116730 385.158691,323.270752 
z"/>
<path fill="#FFCCCD" opacity="1.000000" stroke="none" 
	d="
M258.648254,82.209167 
	C259.095764,82.149712 259.093750,82.646042 259.030212,83.345322 
	C259.080902,98.982185 259.195099,113.919769 259.309326,128.857361 
	C259.322662,129.026398 259.336029,129.195435 259.347900,129.617981 
	C258.901764,129.230545 258.069611,128.589890 258.069183,127.948669 
	C258.058868,112.722023 258.137970,97.495316 258.648254,82.209167 
z"/>
<path fill="#C17A7C" opacity="1.000000" stroke="none" 
	d="
M259.257507,419.459351 
	C274.431274,419.027069 289.766937,418.997009 305.574371,418.966919 
	C305.236481,419.308929 304.427124,419.948029 303.617035,419.948944 
	C288.884552,419.965546 274.151917,419.905365 259.257507,419.459351 
z"/>
<path fill="#B24546" opacity="1.000000" stroke="none" 
	d="
M261.469116,248.031860 
	C261.000824,248.051498 260.984283,247.599136 260.978455,247.372849 
	C275.328674,247.116531 289.684692,247.086502 304.507996,247.312393 
	C304.975311,247.568314 304.978516,247.967957 304.978516,247.967957 
	C290.631500,247.982712 276.284454,247.997482 261.469116,248.031860 
z"/>
<path fill="#A83135" opacity="1.000000" stroke="none" 
	d="
M404.050018,350.385071 
	C407.325470,354.770813 410.655670,359.506470 413.981934,364.606934 
	C410.686920,360.226196 407.395874,355.480591 404.050018,350.385071 
z"/>
<path fill="#A83135" opacity="1.000000" stroke="none" 
	d="
M414.999878,366.402893 
	C420.671875,368.156128 421.479675,373.833038 423.966064,378.643860 
	C420.975098,374.927460 417.986908,370.844513 414.999878,366.402893 
z"/>
<path fill="#AE2E32" opacity="1.000000" stroke="none" 
	d="
M405.839294,83.593109 
	C403.925140,83.805000 401.768372,83.687820 399.315063,83.394989 
	C401.211243,83.234238 403.403961,83.249138 405.839294,83.593109 
z"/>
<path fill="#A32A2D" opacity="1.000000" stroke="none" 
	d="
M405.744171,245.171127 
	C404.911896,245.599731 403.723724,246.080597 402.275024,246.401459 
	C403.139099,245.902100 404.263702,245.562744 405.744171,245.171127 
z"/>
<path fill="#A83135" opacity="1.000000" stroke="none" 
	d="
M423.980469,379.362610 
	C424.655975,379.781952 425.331238,380.528473 426.014130,381.609009 
	C425.341248,381.191956 424.660767,380.440887 423.980469,379.362610 
z"/>
<path fill="#AE2E32" opacity="1.000000" stroke="none" 
	d="
M411.915649,84.728180 
	C410.898712,84.847763 409.750519,84.702980 408.303619,84.377487 
	C409.264740,84.285782 410.524597,84.374794 411.915649,84.728180 
z"/>
<path fill="#A32A2D" opacity="1.000000" stroke="none" 
	d="
M305.253235,247.935364 
	C304.978516,247.967957 304.975311,247.568314 304.971649,247.368530 
	C305.424622,247.132278 305.881226,247.095825 306.674652,247.135376 
	C306.516937,247.441864 306.022461,247.672333 305.253235,247.935364 
z"/>
<path fill="#AE2E32" opacity="1.000000" stroke="none" 
	d="
M417.983521,85.671959 
	C417.588104,85.807617 417.031311,85.666687 416.235443,85.361412 
	C416.604950,85.263168 417.213531,85.329269 417.983521,85.671959 
z"/>
<path fill="#A83135" opacity="1.000000" stroke="none" 
	d="
M414.067535,365.284180 
	C414.320618,365.146759 414.560730,365.329346 414.850220,365.787781 
	C414.672852,365.838257 414.391144,365.685089 414.067535,365.284180 
z"/>
<path fill="#A32A2D" opacity="1.000000" stroke="none" 
	d="
M308.966400,246.756775 
	C308.863953,246.986496 308.681335,246.992294 308.224670,246.988678 
	C308.262512,246.830460 308.574371,246.681671 308.966400,246.756775 
z"/>
<path fill="#A32A2D" opacity="1.000000" stroke="none" 
	d="
M311.842957,246.166504 
	C312.110443,246.177612 312.114990,246.563980 312.102905,246.756561 
	C311.903229,246.963074 311.715668,246.977020 311.245789,246.988129 
	C311.167511,246.708679 311.371460,246.432037 311.842957,246.166504 
z"/>
<path fill="#AE2E32" opacity="1.000000" stroke="none" 
	d="
M259.510864,128.812347 
	C259.195099,113.919769 259.080902,98.982185 259.044006,83.593109 
	C265.783356,83.086029 272.445404,82.982880 279.107452,82.982681 
	C318.105957,82.981499 357.104462,83.004410 396.576965,83.054382 
	C394.947113,83.391312 392.843628,83.953468 390.739380,83.956299 
	C349.483032,84.011879 308.226562,83.999367 266.970123,84.009163 
	C260.044739,84.010811 260.021759,84.028854 260.019257,90.855309 
	C260.014740,103.165489 260.040741,115.475685 260.081970,128.220551 
	C260.109985,128.655243 259.712433,128.767349 259.510864,128.812347 
z"/>
<path fill="#A32A2D" opacity="1.000000" stroke="none" 
	d="
M312.319824,247.173553 
	C340.681824,246.953964 369.383942,246.975632 398.557159,247.046143 
	C397.592743,247.397171 396.157654,247.960159 394.721558,247.962875 
	C368.500000,248.012512 342.278290,248.002060 316.056671,247.967163 
	C314.924194,247.965652 313.792175,247.607056 312.319824,247.173553 
z"/>
<path fill="#0F0E30" opacity="1.000000" stroke="none" 
	d="
M133.844101,130.589661 
	C123.942505,130.946121 113.857018,130.964203 103.111832,130.600876 
	C101.627434,130.136276 100.802727,129.980286 99.978043,129.980423 
	C67.319443,129.985748 34.660847,130.005234 2.002248,130.022888 
	C2.002248,130.022888 1.989792,130.088516 1.957398,130.091827 
	C3.836338,129.729813 5.747181,129.048645 7.659076,129.045670 
	C47.622406,128.983688 87.585892,128.980072 127.549194,129.051453 
	C129.586899,129.055099 131.623230,129.833572 133.844101,130.589661 
z"/>
<path fill="#101633" opacity="1.000000" stroke="none" 
	d="
M128.624359,303.652466 
	C106.975784,303.895569 84.971642,303.932312 62.503563,303.918640 
	C63.316917,303.583160 64.593536,303.053223 65.871590,303.049713 
	C85.856621,302.994995 105.841858,303.003082 125.827003,303.024506 
	C126.641083,303.025360 127.454865,303.299377 128.624359,303.652466 
z"/>
<path fill="#1B2040" opacity="1.000000" stroke="none" 
	d="
M46.614441,417.645508 
	C32.302414,417.892822 17.630447,417.944580 2.503041,417.894135 
	C4.328304,417.525909 6.610319,417.021057 8.889485,417.033600 
	C21.344877,417.102203 33.799568,417.297943 46.614441,417.645508 
z"/>
<path fill="#1B2040" opacity="1.000000" stroke="none" 
	d="
M48.637482,321.385925 
	C48.877522,330.033905 48.927341,339.044281 48.909271,348.517944 
	C48.710003,339.903595 48.578636,330.825989 48.637482,321.385925 
z"/>
<path fill="#1B2040" opacity="1.000000" stroke="none" 
	d="
M48.649666,357.367279 
	C48.883461,360.371521 48.928181,363.724304 48.907162,367.529907 
	C48.714481,364.560455 48.587540,361.138123 48.649666,357.367279 
z"/>
<path fill="#1B2040" opacity="1.000000" stroke="none" 
	d="
M48.654045,382.360535 
	C48.889626,385.040344 48.935772,388.062653 48.915005,391.533508 
	C48.720264,388.889069 48.592438,385.796051 48.654045,382.360535 
z"/>
<path fill="#1B2040" opacity="1.000000" stroke="none" 
	d="
M48.670021,401.306641 
	C48.894184,402.718964 48.935848,404.431427 48.910492,406.567719 
	C48.724823,405.196625 48.606171,403.401733 48.670021,401.306641 
z"/>
<path fill="#1B2040" opacity="1.000000" stroke="none" 
	d="
M48.674725,307.297668 
	C48.896141,308.398193 48.938179,309.778046 48.913307,311.567444 
	C48.729378,310.510315 48.612362,309.043671 48.674725,307.297668 
z"/>
<path fill="#1B2040" opacity="1.000000" stroke="none" 
	d="
M48.677605,370.287781 
	C48.901833,371.393707 48.947113,372.781311 48.923950,374.580963 
	C48.736557,373.518494 48.617603,372.044006 48.677605,370.287781 
z"/>
<path fill="#1B2040" opacity="1.000000" stroke="none" 
	d="
M48.670017,394.298218 
	C48.892227,395.399475 48.936375,396.781158 48.914234,398.573242 
	C48.729282,397.515320 48.610619,396.046936 48.670017,394.298218 
z"/>
<path fill="#101633" opacity="1.000000" stroke="none" 
	d="
M56.710182,303.678833 
	C55.913044,303.893402 54.866444,303.929626 53.429825,303.913361 
	C54.180107,303.740753 55.320415,303.620636 56.710182,303.678833 
z"/>
<path fill="#101633" opacity="1.000000" stroke="none" 
	d="
M50.858643,303.807190 
	C50.973831,303.877502 50.500587,303.980743 50.260666,303.947083 
	C50.237556,303.699677 50.478462,303.640839 50.858643,303.807190 
z"/>
<path fill="#8887A1" opacity="1.000000" stroke="none" 
	d="
M2.211133,130.403748 
	C34.660847,130.005234 67.319443,129.985748 99.978043,129.980423 
	C100.802727,129.980286 101.627434,130.136276 102.653862,130.591766 
	C69.377068,130.904236 35.898540,130.844421 2.211133,130.403748 
z"/>
</svg>